<svg width="413" height="74" viewBox="0 0 413 74" fill="none" xmlns="http://www.w3.org/2000/svg">
<rect width="413" height="74" rx="35" fill="black" fill-opacity="0.2"/>
<path d="M129.736 39.78V44.28H133.726V39.78H129.736ZM141.886 22.89V50.67H145.876V22.89H141.886ZM123.316 46.05C128.236 46.05 134.686 46.02 140.716 44.91L140.446 42.03C134.596 42.81 127.876 42.81 122.836 42.84L123.316 46.05ZM123.376 25.95V29.07H140.086V25.95H123.376ZM131.716 30.18C127.666 30.18 124.816 32.28 124.816 35.37C124.816 38.49 127.666 40.59 131.716 40.59C135.826 40.59 138.676 38.49 138.676 35.37C138.676 32.28 135.826 30.18 131.716 30.18ZM131.716 33.18C133.576 33.18 134.866 33.96 134.866 35.37C134.866 36.81 133.576 37.59 131.716 37.59C129.916 37.59 128.626 36.81 128.626 35.37C128.626 33.96 129.916 33.18 131.716 33.18ZM129.736 23.01V27.75H133.726V23.01H129.736ZM157.014 37.14V43.23H161.004V37.14H157.014ZM169.194 22.89V43.92H173.184V22.89H169.194ZM153.174 47.01V50.19H173.784V47.01H153.174ZM153.174 41.94V47.85H157.164V41.94H153.174ZM150.174 38.34C155.184 38.34 161.694 38.19 167.604 37.2L167.364 34.35C161.544 35.1 154.764 35.16 149.694 35.16L150.174 38.34ZM163.944 39.03V41.76H170.064V39.03H163.944ZM158.634 23.85C154.554 23.85 151.704 25.86 151.704 28.8C151.704 31.77 154.554 33.75 158.634 33.75C162.684 33.75 165.534 31.77 165.534 28.8C165.534 25.86 162.684 23.85 158.634 23.85ZM158.634 26.76C160.464 26.76 161.754 27.45 161.754 28.8C161.754 30.15 160.464 30.84 158.634 30.84C156.774 30.84 155.484 30.15 155.484 28.8C155.484 27.45 156.774 26.76 158.634 26.76ZM194.642 22.86V50.64H198.662V22.86H194.642ZM197.612 33.48V36.75H202.502V33.48H197.612ZM187.352 25.74V26.43C187.352 33.96 183.902 39.06 176.612 42.84L178.832 45.87C188.072 41.22 191.252 34.08 191.252 25.74H187.352ZM178.142 25.74V28.95H189.392V25.74H178.142ZM223.059 22.89V37.83H227.079V22.89H223.059ZM208.599 39.03V50.37H227.079V39.03H223.119V41.61H212.529V39.03H208.599ZM212.529 44.67H223.119V47.19H212.529V44.67ZM211.959 24.03C207.639 24.03 204.399 26.76 204.399 30.6C204.399 34.44 207.639 37.17 211.959 37.17C216.279 37.17 219.489 34.44 219.489 30.6C219.489 26.76 216.279 24.03 211.959 24.03ZM211.959 27.33C214.059 27.33 215.589 28.56 215.589 30.6C215.589 32.67 214.059 33.87 211.959 33.87C209.829 33.87 208.299 32.67 208.299 30.6C208.299 28.56 209.829 27.33 211.959 27.33ZM255.838 22.89V50.67H259.798V22.89H255.838ZM258.898 33.72V37.05H263.818V33.72H258.898ZM237.898 27V30.18H254.068V27H237.898ZM246.028 31.74C241.978 31.74 238.978 34.5 238.978 38.37C238.978 42.24 241.978 45 246.028 45C250.078 45 253.078 42.24 253.078 38.37C253.078 34.5 250.078 31.74 246.028 31.74ZM246.028 34.98C247.918 34.98 249.268 36.24 249.268 38.37C249.268 40.5 247.918 41.76 246.028 41.76C244.138 41.76 242.788 40.5 242.788 38.37C242.788 36.24 244.138 34.98 246.028 34.98ZM244.018 23.34V28.2H248.008V23.34H244.018ZM284.256 22.89V50.67H288.276V22.89H284.256ZM276.066 25.77V26.49C276.066 33.93 273.186 38.97 265.206 42.81L267.276 45.99C277.146 41.22 280.026 34.26 280.026 25.77H276.066ZM266.676 25.77V28.92H277.956V25.77H266.676Z" fill="#E6F0FF" fill-opacity="0.5"/>
</svg>
